<svg fill="none" height="92" viewBox="0 0 92 92" width="92" xmlns="http://www.w3.org/2000/svg"><g fill="#fff"><path d="m31.5431 52.6083c0 2.906-2.3466 5.2547-5.2501 5.2547-2.9034 0-5.25-2.3487-5.25-5.2547 0-2.9061 2.3466-5.2548 5.25-5.2548h5.2501zm2.6251 0c0-2.9061 2.3466-5.2548 5.25-5.2548 2.9035 0 5.2501 2.3487 5.2501 5.2548v13.1368c0 2.9061-2.3466 5.2548-5.2501 5.2548-2.9034 0-5.25-2.3487-5.25-5.2548z"/><path d="m39.415 31.5095c-2.9034 0-5.25-2.3487-5.25-5.2548 0-2.906 2.3466-5.2547 5.25-5.2547 2.9035 0 5.2501 2.3487 5.2501 5.2547v5.2548zm0 2.6672c2.9035 0 5.2501 2.3487 5.2501 5.2547 0 2.9061-2.3466 5.2548-5.2501 5.2548h-13.1649c-2.9035 0-5.2501-2.3487-5.2501-5.2548 0-2.906 2.3466-5.2547 5.2501-5.2547z"/><path d="m60.4572 39.4314c0-2.906 2.3467-5.2547 5.2501-5.2547 2.9035 0 5.2501 2.3487 5.2501 5.2547 0 2.9061-2.3466 5.2548-5.2501 5.2548h-5.2501zm-2.625 0c0 2.9061-2.3466 5.2548-5.2501 5.2548-2.9034 0-5.2501-2.3487-5.2501-5.2548v-13.1767c0-2.906 2.3467-5.2547 5.2501-5.2547 2.9035 0 5.2501 2.3487 5.2501 5.2547z"/><path d="m52.5821 60.4904c2.9035 0 5.2501 2.3487 5.2501 5.2547 0 2.9061-2.3466 5.2548-5.2501 5.2548-2.9034 0-5.2501-2.3487-5.2501-5.2548v-5.2547zm0-2.6274c-2.9034 0-5.2501-2.3487-5.2501-5.2547 0-2.9061 2.3467-5.2548 5.2501-5.2548h13.165c2.9034 0 5.2501 2.3487 5.2501 5.2548 0 2.906-2.3467 5.2547-5.2501 5.2547z"/></g></svg>