<svg xmlns="http://www.w3.org/2000/svg"  viewBox="0 0 48 48" width="48px" height="48px" baseProfile="basic"><path d="M44,21v-2h-0.424c-0.774-1.763-2.531-3-4.576-3s-3.802,1.237-4.576,3H34v-9c0-2.757-2.243-5-5-5s-5,2.243-5,5	c0-2.757-2.243-5-5-5c-2.045,0-3.802,1.237-4.576,3H14v2c0,2.045,1.237,3.802,3,4.576V15H8c-2.045,0-3.802,1.237-4.576,3H3v2	c0,2.414,1.721,4.434,4,4.899v0.23C5.404,25.454,4.096,26.549,3.447,28H3v2h0.002C3.002,30.008,3,30.014,3,30.022	c0,2.754,2.243,4.994,5,4.994s5-2.24,5-4.994V30h0.002c0,0.008-0.002,0.014-0.002,0.022v10.984C13,43.76,15.243,46,18,46	s5-2.24,5-4.994V41c0,2.757,2.243,5,5,5s5-2.243,5-5v-2h-0.424c-0.774-1.763-2.531-3-4.576-3h11c2.757,0,5-2.243,5-5v-2h-0.424	c-0.774-1.763-2.531-3-4.576-3C41.757,26,44,23.757,44,21z"/><path fill="#fff" d="M33,8c0-2.209-1.791-4-4-4s-4,1.791-4,4c0,1.254,0,9.741,0,11c0,2.209,1.791,4,4,4s4-1.791,4-4	C33,17.741,33,9.254,33,8z"/><path fill="#fff" d="M43,19c0,2.209-1.791,4-4,4c-1.195,0-4,0-4,0s0-2.986,0-4c0-2.209,1.791-4,4-4S43,16.791,43,19z"/><path fill="#fff" d="M8,14c-2.209,0-4,1.791-4,4s1.791,4,4,4c1.254,0,9.741,0,11,0c2.209,0,4-1.791,4-4s-1.791-4-4-4	C17.741,14,9.254,14,8,14z"/><path fill="#fff" d="M19,4c2.209,0,4,1.791,4,4c0,1.195,0,4,0,4s-2.986,0-4,0c-2.209,0-4-1.791-4-4S16.791,4,19,4z"/><path fill="#fff" d="M14,39.006C14,41.212,15.791,43,18,43s4-1.788,4-3.994c0-1.252,0-9.727,0-10.984	c0-2.206-1.791-3.994-4-3.994s-4,1.788-4,3.994C14,29.279,14,37.754,14,39.006z"/><path fill="#fff" d="M4,28.022c0-2.206,1.791-3.994,4-3.994c1.195,0,4,0,4,0s0,2.981,0,3.994c0,2.206-1.791,3.994-4,3.994	S4,30.228,4,28.022z"/><path fill="#fff" d="M39,33c2.209,0,4-1.791,4-4s-1.791-4-4-4c-1.254,0-9.741,0-11,0c-2.209,0-4,1.791-4,4s1.791,4,4,4	C29.258,33,37.746,33,39,33z"/><path fill="#fff" d="M28,43c-2.209,0-4-1.791-4-4c0-1.195,0-4,0-4s2.986,0,4,0c2.209,0,4,1.791,4,4S30.209,43,28,43z"/><path d="M29,24c-2.757,0-5-2.243-5-5V8c0-2.757,2.243-5,5-5s5,2.243,5,5v11C34,21.757,31.757,24,29,24z M29,5c-1.654,0-3,1.346-3,3	v11c0,1.654,1.346,3,3,3s3-1.346,3-3V8C32,6.346,30.654,5,29,5z"/><path d="M39,24h-4c-0.553,0-1-0.448-1-1v-4c0-2.757,2.243-5,5-5s5,2.243,5,5S41.757,24,39,24z M36,22h3c1.654,0,3-1.346,3-3	s-1.346-3-3-3s-3,1.346-3,3V22z"/><path d="M19,23H8c-2.757,0-5-2.243-5-5s2.243-5,5-5h11c2.757,0,5,2.243,5,5S21.757,23,19,23z M8,15c-1.654,0-3,1.346-3,3	s1.346,3,3,3h11c1.654,0,3-1.346,3-3s-1.346-3-3-3H8z"/><path d="M23,13h-4c-2.757,0-5-2.243-5-5s2.243-5,5-5s5,2.243,5,5v4C24,12.552,23.553,13,23,13z M19,5c-1.654,0-3,1.346-3,3	s1.346,3,3,3h3V8C22,6.346,20.654,5,19,5z"/><path d="M18,44c-2.757,0-5-2.24-5-4.994V28.022c0-2.754,2.243-4.994,5-4.994s5,2.24,5,4.994v10.984C23,41.76,20.757,44,18,44z M18,25.028c-1.654,0-3,1.343-3,2.994v10.984C15,40.657,16.346,42,18,42s3-1.343,3-2.994V28.022C21,26.371,19.654,25.028,18,25.028z"/><path d="M8,33.016c-2.757,0-5-2.24-5-4.994s2.243-4.994,5-4.994h4c0.553,0,1,0.448,1,1v3.994C13,30.776,10.757,33.016,8,33.016z M8,25.028c-1.654,0-3,1.343-3,2.994s1.346,2.994,3,2.994s3-1.343,3-2.994v-2.994H8z"/><path d="M39,34H28c-2.757,0-5-2.243-5-5s2.243-5,5-5h11c2.757,0,5,2.243,5,5S41.757,34,39,34z M28,26c-1.654,0-3,1.346-3,3	s1.346,3,3,3h11c1.654,0,3-1.346,3-3s-1.346-3-3-3H28z"/><path d="M28,44c-2.757,0-5-2.243-5-5v-4c0-0.552,0.447-1,1-1h4c2.757,0,5,2.243,5,5S30.757,44,28,44z M25,36v3c0,1.654,1.346,3,3,3	s3-1.346,3-3s-1.346-3-3-3H25z"/></svg>